<svg width="32" height="32" viewBox="0 0 32 32" fill="none" xmlns="http://www.w3.org/2000/svg">
<g clip-path="url(#clip0_601_1492)">
<path d="M23.6684 2.48278C23.4119 1.2254 22.2979 0.275879 20.9655 0.275879C20.6604 0.275879 20.4138 0.5225 20.4138 0.827603C20.4138 1.13271 20.6604 1.37933 20.9655 1.37933C21.8781 1.37933 22.6207 2.12195 22.6207 3.0345C22.6207 3.94705 21.8781 4.68967 20.9655 4.68967C20.6604 4.68967 20.4138 4.93629 20.4138 5.2414C20.4138 5.5465 20.6604 5.79312 20.9655 5.79312C22.2974 5.79312 23.4119 4.8436 23.6684 3.58622H30.8966V8.55174H1.10345V3.58622H8.82759H10.4828C10.7879 3.58622 11.0345 3.3396 11.0345 3.0345C11.0345 2.7294 10.7879 2.48278 10.4828 2.48278H9.48083C9.70924 1.84167 10.3161 1.37933 11.0345 1.37933C11.947 1.37933 12.6897 2.12195 12.6897 3.0345C12.6897 3.94705 11.947 4.68967 11.0345 4.68967C10.7294 4.68967 10.4828 4.93629 10.4828 5.2414C10.4828 5.5465 10.7294 5.79312 11.0345 5.79312C12.5556 5.79312 13.7931 4.5556 13.7931 3.0345C13.7931 1.5134 12.5556 0.275879 11.0345 0.275879C9.70262 0.275879 8.58814 1.2254 8.33159 2.48278H0V9.65519V31.7242H32V9.65519V2.48278H23.6684ZM30.8966 30.6207H1.10345V9.65519H30.8966V30.6207Z" fill="black"/>
<path d="M14.3447 1.37933C15.2572 1.37933 15.9999 2.12195 15.9999 3.0345C15.9999 3.94705 15.2572 4.68967 14.3447 4.68967C14.0396 4.68967 13.793 4.93629 13.793 5.2414C13.793 5.5465 14.0396 5.79312 14.3447 5.79312C15.8658 5.79312 17.1033 4.5556 17.1033 3.0345C17.1033 1.5134 15.8658 0.275879 14.3447 0.275879C14.0396 0.275879 13.793 0.5225 13.793 0.827603C13.793 1.13271 14.0396 1.37933 14.3447 1.37933Z" fill="black"/>
<path d="M17.6552 1.37933C18.5678 1.37933 19.3104 2.12195 19.3104 3.0345C19.3104 3.94705 18.5678 4.68967 17.6552 4.68967C17.3501 4.68967 17.1035 4.93629 17.1035 5.2414C17.1035 5.5465 17.3501 5.79312 17.6552 5.79312C19.1763 5.79312 20.4139 4.5556 20.4139 3.0345C20.4139 1.5134 19.1763 0.275879 17.6552 0.275879C17.3501 0.275879 17.1035 0.5225 17.1035 0.827603C17.1035 1.13271 17.3501 1.37933 17.6552 1.37933Z" fill="black"/>
<path d="M12.1377 14.0688C12.4424 14.0688 12.6894 13.8218 12.6894 13.5171C12.6894 13.2123 12.4424 12.9653 12.1377 12.9653C11.833 12.9653 11.5859 13.2123 11.5859 13.5171C11.5859 13.8218 11.833 14.0688 12.1377 14.0688Z" fill="black"/>
<path d="M16.0009 14.0688C16.3057 14.0688 16.5527 13.8218 16.5527 13.5171C16.5527 13.2123 16.3057 12.9653 16.0009 12.9653C15.6962 12.9653 15.4492 13.2123 15.4492 13.5171C15.4492 13.8218 15.6962 14.0688 16.0009 14.0688Z" fill="black"/>
<path d="M19.8623 14.0688C20.167 14.0688 20.414 13.8218 20.414 13.5171C20.414 13.2123 20.167 12.9653 19.8623 12.9653C19.5576 12.9653 19.3105 13.2123 19.3105 13.5171C19.3105 13.8218 19.5576 14.0688 19.8623 14.0688Z" fill="black"/>
<path d="M23.7236 14.0688C24.0283 14.0688 24.2753 13.8218 24.2753 13.5171C24.2753 13.2123 24.0283 12.9653 23.7236 12.9653C23.4189 12.9653 23.1719 13.2123 23.1719 13.5171C23.1719 13.8218 23.4189 14.0688 23.7236 14.0688Z" fill="black"/>
<path d="M27.5869 14.0688C27.8916 14.0688 28.1386 13.8218 28.1386 13.5171C28.1386 13.2123 27.8916 12.9653 27.5869 12.9653C27.2822 12.9653 27.0352 13.2123 27.0352 13.5171C27.0352 13.8218 27.2822 14.0688 27.5869 14.0688Z" fill="black"/>
<path d="M4.41305 18.4828C4.71776 18.4828 4.96478 18.2358 4.96478 17.9311C4.96478 17.6264 4.71776 17.3794 4.41305 17.3794C4.10834 17.3794 3.86133 17.6264 3.86133 17.9311C3.86133 18.2358 4.10834 18.4828 4.41305 18.4828Z" fill="black"/>
<path d="M8.27633 18.4828C8.58104 18.4828 8.82806 18.2358 8.82806 17.9311C8.82806 17.6264 8.58104 17.3794 8.27633 17.3794C7.97162 17.3794 7.72461 17.6264 7.72461 17.9311C7.72461 18.2358 7.97162 18.4828 8.27633 18.4828Z" fill="black"/>
<path d="M12.1377 18.4828C12.4424 18.4828 12.6894 18.2358 12.6894 17.9311C12.6894 17.6264 12.4424 17.3794 12.1377 17.3794C11.833 17.3794 11.5859 17.6264 11.5859 17.9311C11.5859 18.2358 11.833 18.4828 12.1377 18.4828Z" fill="black"/>
<path d="M16.0009 18.4828C16.3057 18.4828 16.5527 18.2358 16.5527 17.9311C16.5527 17.6264 16.3057 17.3794 16.0009 17.3794C15.6962 17.3794 15.4492 17.6264 15.4492 17.9311C15.4492 18.2358 15.6962 18.4828 16.0009 18.4828Z" fill="black"/>
<path d="M19.8623 18.4828C20.167 18.4828 20.414 18.2358 20.414 17.9311C20.414 17.6264 20.167 17.3794 19.8623 17.3794C19.5576 17.3794 19.3105 17.6264 19.3105 17.9311C19.3105 18.2358 19.5576 18.4828 19.8623 18.4828Z" fill="black"/>
<path d="M23.7236 18.4828C24.0283 18.4828 24.2753 18.2358 24.2753 17.9311C24.2753 17.6264 24.0283 17.3794 23.7236 17.3794C23.4189 17.3794 23.1719 17.6264 23.1719 17.9311C23.1719 18.2358 23.4189 18.4828 23.7236 18.4828Z" fill="black"/>
<path d="M27.5869 18.4828C27.8916 18.4828 28.1386 18.2358 28.1386 17.9311C28.1386 17.6264 27.8916 17.3794 27.5869 17.3794C27.2822 17.3794 27.0352 17.6264 27.0352 17.9311C27.0352 18.2358 27.2822 18.4828 27.5869 18.4828Z" fill="black"/>
<path d="M4.41305 22.3447C4.71776 22.3447 4.96478 22.0976 4.96478 21.7929C4.96478 21.4882 4.71776 21.2412 4.41305 21.2412C4.10834 21.2412 3.86133 21.4882 3.86133 21.7929C3.86133 22.0976 4.10834 22.3447 4.41305 22.3447Z" fill="black"/>
<path d="M8.27633 22.3447C8.58104 22.3447 8.82806 22.0976 8.82806 21.7929C8.82806 21.4882 8.58104 21.2412 8.27633 21.2412C7.97162 21.2412 7.72461 21.4882 7.72461 21.7929C7.72461 22.0976 7.97162 22.3447 8.27633 22.3447Z" fill="black"/>
<path d="M12.1377 22.3447C12.4424 22.3447 12.6894 22.0976 12.6894 21.7929C12.6894 21.4882 12.4424 21.2412 12.1377 21.2412C11.833 21.2412 11.5859 21.4882 11.5859 21.7929C11.5859 22.0976 11.833 22.3447 12.1377 22.3447Z" fill="black"/>
<path d="M16.0009 22.3447C16.3057 22.3447 16.5527 22.0976 16.5527 21.7929C16.5527 21.4882 16.3057 21.2412 16.0009 21.2412C15.6962 21.2412 15.4492 21.4882 15.4492 21.7929C15.4492 22.0976 15.6962 22.3447 16.0009 22.3447Z" fill="black"/>
<path d="M19.8623 22.3447C20.167 22.3447 20.414 22.0976 20.414 21.7929C20.414 21.4882 20.167 21.2412 19.8623 21.2412C19.5576 21.2412 19.3105 21.4882 19.3105 21.7929C19.3105 22.0976 19.5576 22.3447 19.8623 22.3447Z" fill="black"/>
<path d="M23.7236 22.3447C24.0283 22.3447 24.2753 22.0976 24.2753 21.7929C24.2753 21.4882 24.0283 21.2412 23.7236 21.2412C23.4189 21.2412 23.1719 21.4882 23.1719 21.7929C23.1719 22.0976 23.4189 22.3447 23.7236 22.3447Z" fill="black"/>
<path d="M27.5869 22.3447C27.8916 22.3447 28.1386 22.0976 28.1386 21.7929C28.1386 21.4882 27.8916 21.2412 27.5869 21.2412C27.2822 21.2412 27.0352 21.4882 27.0352 21.7929C27.0352 22.0976 27.2822 22.3447 27.5869 22.3447Z" fill="black"/>
<path d="M4.41305 26.7587C4.71776 26.7587 4.96478 26.5117 4.96478 26.207C4.96478 25.9023 4.71776 25.6553 4.41305 25.6553C4.10834 25.6553 3.86133 25.9023 3.86133 26.207C3.86133 26.5117 4.10834 26.7587 4.41305 26.7587Z" fill="black"/>
<path d="M8.27633 26.7587C8.58104 26.7587 8.82806 26.5117 8.82806 26.207C8.82806 25.9023 8.58104 25.6553 8.27633 25.6553C7.97162 25.6553 7.72461 25.9023 7.72461 26.207C7.72461 26.5117 7.97162 26.7587 8.27633 26.7587Z" fill="black"/>
<path d="M12.1377 26.7587C12.4424 26.7587 12.6894 26.5117 12.6894 26.207C12.6894 25.9023 12.4424 25.6553 12.1377 25.6553C11.833 25.6553 11.5859 25.9023 11.5859 26.207C11.5859 26.5117 11.833 26.7587 12.1377 26.7587Z" fill="black"/>
<path d="M16.0009 26.7587C16.3057 26.7587 16.5527 26.5117 16.5527 26.207C16.5527 25.9023 16.3057 25.6553 16.0009 25.6553C15.6962 25.6553 15.4492 25.9023 15.4492 26.207C15.4492 26.5117 15.6962 26.7587 16.0009 26.7587Z" fill="black"/>
<path d="M19.8623 26.7587C20.167 26.7587 20.414 26.5117 20.414 26.207C20.414 25.9023 20.167 25.6553 19.8623 25.6553C19.5576 25.6553 19.3105 25.9023 19.3105 26.207C19.3105 26.5117 19.5576 26.7587 19.8623 26.7587Z" fill="black"/>
</g>
<defs>
<clipPath id="clip0_601_1492">
<rect width="32" height="32" fill="white"/>
</clipPath>
</defs>
</svg>
