<svg width="20" height="20" viewBox="0 0 20 20" fill="none" xmlns="http://www.w3.org/2000/svg">
<path d="M10 20C15.5228 20 20 15.5228 20 10C20 4.47715 15.5228 0 10 0C4.47715 0 0 4.47715 0 10C0 15.5228 4.47715 20 10 20Z" fill="black"/>
<g clip-path="url(#clip0_610_308)">
<path d="M14.8817 5.1188C14.7239 4.96105 14.4682 4.96105 14.3104 5.1188L5.11832 14.3109C4.96056 14.4687 4.96056 14.7244 5.11832 14.8822C5.19718 14.9611 5.30058 15.0005 5.40396 15.0005C5.50734 15.0005 5.61072 14.9611 5.6896 14.8821L14.8817 5.69005C15.0394 5.53232 15.0394 5.27656 14.8817 5.1188Z" fill="white"/>
<path d="M14.8817 14.3104L5.68957 5.11832C5.53183 4.96056 5.27605 4.96056 5.11832 5.11832C4.96056 5.27605 4.96056 5.53181 5.11832 5.68957L14.3104 14.8817C14.3893 14.9606 14.4927 15 14.5961 15C14.6994 15 14.8028 14.9606 14.8817 14.8817C15.0394 14.7239 15.0394 14.4682 14.8817 14.3104Z" fill="white"/>
</g>
<defs>
<clipPath id="clip0_610_308">
<rect width="10" height="10" fill="white" transform="translate(5 5)"/>
</clipPath>
</defs>
</svg>
