<svg width="32" height="32" viewBox="0 0 32 32" fill="none" xmlns="http://www.w3.org/2000/svg">
<g clip-path="url(#clip0_1_460)">
<path d="M12.4955 9.06667H25.0667C25.3611 9.06667 25.6 8.82827 25.6 8.53333C25.6 8.2384 25.3611 8 25.0667 8H12.4955C12.2011 8 11.9622 8.2384 11.9622 8.53333C11.9622 8.82827 12.2011 9.06667 12.4955 9.06667Z" fill="black"/>
<path d="M12.4955 17.0667H25.0667C25.3611 17.0667 25.6 16.8283 25.6 16.5333C25.6 16.2384 25.3611 16 25.0667 16H12.4955C12.2011 16 11.9622 16.2384 11.9622 16.5333C11.9622 16.8283 12.2011 17.0667 12.4955 17.0667Z" fill="black"/>
<path d="M12.4955 25.0667H25.0667C25.3611 25.0667 25.6 24.8283 25.6 24.5333C25.6 24.2384 25.3611 24 25.0667 24H12.4955C12.2011 24 11.9622 24.2384 11.9622 24.5333C11.9622 24.8283 12.2011 25.0667 12.4955 25.0667Z" fill="black"/>
<path d="M31.4667 0H0.533333C0.238933 0 0 0.2384 0 0.533333V31.4667C0 31.7616 0.238933 32 0.533333 32H31.4667C31.7611 32 32 31.7616 32 31.4667V0.533333C32 0.2384 31.7611 0 31.4667 0ZM30.9333 30.9333H1.06667V1.06667H30.9333V30.9333Z" fill="black"/>
<path d="M6.6672 9.85277L7.96214 9.17171L9.25707 9.85277L9.01013 8.41064L10.0576 7.38877L8.6096 7.17864L7.96214 5.86664L7.31467 7.17864L5.86667 7.38877L6.91467 8.41064L6.6672 9.85277Z" fill="black"/>
<path d="M6.6672 17.8971L7.96214 17.216L9.25707 17.8971L9.01013 16.4549L10.0576 15.4336L8.6096 15.2229L7.96214 13.9109L7.31467 15.2229L5.86667 15.4336L6.91467 16.4549L6.6672 17.8971Z" fill="black"/>
<path d="M6.6672 26.1334L7.96214 25.4523L9.25707 26.1334L9.01013 24.6913L10.0576 23.6699L8.6096 23.4593L7.96214 22.1473L7.31467 23.4593L5.86667 23.6699L6.91467 24.6913L6.6672 26.1334Z" fill="black"/>
</g>
<defs>
<clipPath id="clip0_1_460">
<rect width="32" height="32" fill="white"/>
</clipPath>
</defs>
</svg>
