<svg width="32" height="32" viewBox="0 0 32 32" fill="none" xmlns="http://www.w3.org/2000/svg">
<path d="M29.3055 15.0672C29.3151 15.0304 29.3263 14.9952 29.3279 14.9568C29.3284 14.9488 29.3327 14.9419 29.3327 14.9333C29.3327 7.76 23.6383 1.89493 16.5327 1.61333V0.533333C16.5327 0.2384 16.2937 0 15.9993 0C15.7049 0 15.466 0.2384 15.466 0.533333V1.61333C8.36042 1.89493 2.66602 7.76 2.66602 14.9333C2.66602 14.9419 2.67028 14.9488 2.67082 14.9573C2.67242 14.9952 2.68308 15.0304 2.69322 15.0677C2.70175 15.0992 2.70655 15.1307 2.71988 15.1595C2.73322 15.1877 2.75402 15.2112 2.77215 15.2368C2.79455 15.2683 2.81535 15.2997 2.84415 15.3259C2.85002 15.3312 2.85268 15.3392 2.85908 15.3445C2.87828 15.3605 2.90175 15.3659 2.92202 15.3787C2.95348 15.3984 2.98335 15.4181 3.01908 15.4309C3.05642 15.4448 3.09428 15.4491 3.13268 15.4539C3.15562 15.456 3.17588 15.4667 3.19935 15.4667C3.20735 15.4667 3.21375 15.4624 3.22175 15.4624C3.26228 15.4608 3.30015 15.4496 3.33908 15.4389C3.36788 15.4309 3.39722 15.4267 3.42335 15.4139C3.45375 15.4 3.47882 15.3776 3.50655 15.3579C3.53588 15.3365 3.56575 15.3168 3.59028 15.2901C3.59615 15.2837 3.60415 15.2811 3.61002 15.2741C4.36202 14.3664 5.35295 13.8667 6.39935 13.8667C7.44575 13.8667 8.43668 14.3664 9.18868 15.2741C9.19882 15.2864 9.21428 15.2912 9.22548 15.3024C9.23828 15.3152 9.24468 15.3323 9.25908 15.344C9.28042 15.3616 9.30602 15.368 9.32842 15.3819C9.35562 15.3984 9.38068 15.4149 9.40948 15.4256C9.45322 15.4427 9.49695 15.4496 9.54228 15.4544C9.56202 15.4565 9.58015 15.4667 9.59935 15.4667C9.60788 15.4667 9.61588 15.4629 9.62388 15.4624C9.65108 15.4613 9.67615 15.4544 9.70282 15.4491C9.73962 15.4416 9.77482 15.4331 9.80948 15.4176C9.83615 15.4059 9.86015 15.3909 9.88468 15.3744C9.90228 15.3632 9.92202 15.3573 9.93855 15.3435C9.95135 15.3328 9.95722 15.3179 9.96895 15.3061C9.98122 15.2939 9.99775 15.2875 10.0089 15.2736C10.762 14.3664 11.7529 13.8667 12.7993 13.8667C13.7913 13.8667 14.73 14.32 15.466 15.1392V29.3333C15.466 30.2155 14.7481 30.9333 13.866 30.9333C12.9839 30.9333 12.266 30.2155 12.266 29.3333C12.266 29.0384 12.0271 28.8 11.7327 28.8C11.4383 28.8 11.1993 29.0384 11.1993 29.3333C11.1993 30.8037 12.3956 32 13.866 32C15.3364 32 16.5327 30.8037 16.5327 29.3333V15.1392C17.2687 14.32 18.2073 13.8667 19.1994 13.8667C20.2458 13.8667 21.2367 14.3664 21.9887 15.2741C21.9988 15.2864 22.0143 15.2912 22.0255 15.3024C22.0383 15.3152 22.0447 15.3323 22.0591 15.344C22.0804 15.3616 22.106 15.3675 22.1284 15.3813C22.1556 15.3979 22.1807 15.4144 22.21 15.4256C22.2532 15.4421 22.297 15.4496 22.3428 15.4544C22.362 15.4565 22.3801 15.4667 22.3993 15.4667C22.4079 15.4667 22.4159 15.4629 22.4239 15.4624C22.4511 15.4613 22.4767 15.4544 22.5033 15.4485C22.5396 15.4411 22.5748 15.4325 22.6095 15.4176C22.6367 15.4059 22.6607 15.3904 22.6852 15.3744C22.7028 15.3632 22.7226 15.3573 22.7391 15.344C22.7519 15.3333 22.7577 15.3184 22.7689 15.3067C22.7812 15.2944 22.7978 15.288 22.8095 15.2741C23.562 14.3664 24.5529 13.8667 25.5993 13.8667C26.6458 13.8667 27.6367 14.3664 28.3887 15.2741C28.394 15.2805 28.4015 15.2821 28.4074 15.2885C28.4447 15.3296 28.4895 15.3605 28.538 15.3888C28.5546 15.3984 28.5674 15.4128 28.5849 15.4203C28.6506 15.4491 28.7225 15.4667 28.7994 15.4667C28.865 15.4667 28.93 15.4523 28.9919 15.4277C29.0159 15.4181 29.0356 15.4027 29.058 15.3899C29.0852 15.3744 29.1146 15.3643 29.1391 15.3435C29.1455 15.3381 29.1482 15.3307 29.154 15.3248C29.1828 15.2987 29.2031 15.2677 29.226 15.2357C29.2442 15.2101 29.2649 15.1861 29.2783 15.1584C29.2922 15.1301 29.2975 15.0987 29.3055 15.0672ZM25.5993 12.8C24.4164 12.8 23.2996 13.2773 22.3993 14.1515C21.4991 13.2773 20.3823 12.8 19.1994 12.8C18.0164 12.8 16.8996 13.2773 15.9993 14.1515C15.0991 13.2773 13.9823 12.8 12.7993 12.8C11.6164 12.8 10.4996 13.2773 9.59935 14.1515C8.69908 13.2773 7.58228 12.8 6.39935 12.8C5.46602 12.8 4.57642 13.1019 3.79935 13.656C4.44042 7.49013 9.66708 2.66667 15.9993 2.66667C22.3316 2.66667 27.5583 7.49013 28.1994 13.656C27.4223 13.1019 26.5327 12.8 25.5993 12.8Z" fill="black"/>
</svg>
