<svg width="20" height="20" viewBox="0 0 20 20" fill="none" xmlns="http://www.w3.org/2000/svg">
<g clip-path="url(#clip0_601_1380)">
<path d="M15.8074 12.3892C15.3979 11.9628 14.9041 11.7349 14.3806 11.7349C13.8614 11.7349 13.3633 11.9586 12.937 12.385L11.6031 13.7146C11.4934 13.6555 11.3836 13.6006 11.2781 13.5458C11.1261 13.4698 10.9826 13.398 10.8602 13.3221C9.61076 12.5285 8.47527 11.4943 7.38622 10.1562C6.85857 9.48926 6.504 8.92785 6.24651 8.358C6.59264 8.04141 6.91345 7.71216 7.22581 7.39558C7.34401 7.27739 7.4622 7.15497 7.58039 7.03678C8.46683 6.15034 8.46683 5.00219 7.58039 4.11576L6.42802 2.96338C6.29716 2.83253 6.16209 2.69745 6.03545 2.56238C5.78218 2.30067 5.51625 2.03051 5.24188 1.77725C4.83243 1.37202 4.34278 1.15674 3.8278 1.15674C3.31282 1.15674 2.81472 1.37202 2.39261 1.77725C2.38839 1.78147 2.38839 1.78147 2.38417 1.78569L0.948981 3.23354C0.408676 3.77384 0.100533 4.43234 0.0329944 5.19637C-0.068313 6.42894 0.294705 7.57709 0.5733 8.32845C1.25712 10.1731 2.27864 11.8826 3.80247 13.7146C5.65133 15.9223 7.87587 17.6656 10.417 18.894C11.3879 19.3541 12.6837 19.8986 14.1316 19.9914C14.2202 19.9957 14.3131 19.9999 14.3975 19.9999C15.3726 19.9999 16.1915 19.6495 16.8331 18.9531C16.8373 18.9446 16.8458 18.9404 16.85 18.9319C17.0695 18.666 17.3228 18.4254 17.5887 18.1679C17.7702 17.9949 17.9559 17.8133 18.1375 17.6234C18.5553 17.1886 18.7748 16.6821 18.7748 16.1629C18.7748 15.6395 18.5511 15.1371 18.1248 14.715L15.8074 12.3892ZM17.3186 16.834C17.3143 16.834 17.3143 16.8383 17.3186 16.834C17.1539 17.0113 16.9851 17.1717 16.8036 17.349C16.5292 17.6107 16.2506 17.8851 15.9889 18.1932C15.5626 18.6491 15.0602 18.8644 14.4017 18.8644C14.3384 18.8644 14.2709 18.8644 14.2076 18.8602C12.9539 18.78 11.7889 18.2903 10.9151 17.8724C8.52592 16.7158 6.42802 15.0738 4.68469 12.9928C3.24528 11.2579 2.28286 9.65389 1.64547 7.93166C1.2529 6.8806 1.10938 6.0617 1.1727 5.28923C1.21491 4.79536 1.40486 4.38591 1.75522 4.03555L3.19463 2.59615C3.40146 2.40197 3.62096 2.29645 3.83624 2.29645C4.10217 2.29645 4.31745 2.45685 4.45253 2.59192C4.45675 2.59615 4.46097 2.60037 4.46519 2.60459C4.72268 2.84519 4.9675 3.09424 5.22499 3.36017C5.35585 3.49525 5.49093 3.63032 5.626 3.76962L6.77837 4.92199C7.22581 5.36943 7.22581 5.7831 6.77837 6.23055C6.65596 6.35296 6.53777 6.47537 6.41535 6.59356C6.06078 6.95658 5.72309 7.29427 5.35585 7.62352C5.34741 7.63196 5.33896 7.63618 5.33474 7.64463C4.97173 8.00764 5.03926 8.36222 5.11524 8.60282C5.11947 8.61549 5.12369 8.62815 5.12791 8.64081C5.42761 9.36685 5.84972 10.0507 6.49133 10.8654L6.49556 10.8696C7.66059 12.3048 8.88894 13.4234 10.2439 14.2803C10.417 14.39 10.5943 14.4786 10.7631 14.5631C10.9151 14.639 11.0586 14.7108 11.181 14.7868C11.1979 14.7952 11.2148 14.8079 11.2317 14.8163C11.3752 14.8881 11.5103 14.9219 11.6496 14.9219C11.9999 14.9219 12.2194 14.7024 12.2912 14.6306L13.7348 13.187C13.8783 13.0435 14.1063 12.8704 14.3722 12.8704C14.6339 12.8704 14.8492 13.035 14.98 13.1785C14.9843 13.1828 14.9843 13.1828 14.9885 13.187L17.3143 15.5128C17.7491 15.9434 17.7491 16.3866 17.3186 16.834Z" fill="#8EE901"/>
<path d="M10.8109 4.7574C11.9168 4.94313 12.9214 5.46656 13.7235 6.26857C14.5255 7.07059 15.0447 8.07522 15.2346 9.18116C15.2811 9.45975 15.5217 9.65392 15.796 9.65392C15.8298 9.65392 15.8594 9.6497 15.8931 9.64548C16.2055 9.59483 16.4123 9.29935 16.3617 8.98698C16.1337 7.64888 15.5006 6.42897 14.5339 5.46233C13.5673 4.49569 12.3474 3.86252 11.0093 3.63458C10.6969 3.58393 10.4056 3.79076 10.3508 4.09891C10.2959 4.40705 10.4985 4.70675 10.8109 4.7574Z" fill="#8EE901"/>
<path d="M19.9776 8.82242C19.6019 6.61899 18.5635 4.61395 16.9679 3.01836C15.3723 1.42277 13.3673 0.384369 11.1639 0.00868772C10.8557 -0.0461871 10.5645 0.16487 10.5096 0.473013C10.4589 0.785377 10.6658 1.07664 10.9781 1.13151C12.9452 1.46498 14.7392 2.39785 16.1659 3.82037C17.5926 5.24712 18.5213 7.0411 18.8548 9.00815C18.9012 9.28675 19.1418 9.48092 19.4162 9.48092C19.4499 9.48092 19.4795 9.4767 19.5133 9.47248C19.8214 9.42604 20.0325 9.13056 19.9776 8.82242Z" fill="#8EE901"/>
</g>
<defs>
<clipPath id="clip0_601_1380">
<rect width="20" height="20" fill="white"/>
</clipPath>
</defs>
</svg>
