<svg width="32" height="32" viewBox="0 0 32 32" fill="none" xmlns="http://www.w3.org/2000/svg">
<g clip-path="url(#clip0_1_447)">
<path d="M16 13.8667C18.0587 13.8667 19.7333 12.1915 19.7333 10.1334C19.7333 8.07522 18.0587 6.40002 16 6.40002C13.9413 6.40002 12.2667 8.07522 12.2667 10.1334C12.2667 12.1915 13.9413 13.8667 16 13.8667ZM16 7.46669C17.4704 7.46669 18.6667 8.66296 18.6667 10.1334C18.6667 11.6038 17.4704 12.8 16 12.8C14.5296 12.8 13.3333 11.6038 13.3333 10.1334C13.3333 8.66296 14.5296 7.46669 16 7.46669Z" fill="black"/>
<path d="M15.9056 29.2037L24.0875 17.3867C27.1563 13.2955 26.7125 6.57067 23.1376 2.99627C21.2059 1.064 18.6373 0 15.9056 0C13.1739 0 10.6053 1.064 8.67361 2.99573C5.09868 6.57013 4.65494 13.2949 7.71148 17.3701L15.9056 29.2037ZM9.42774 3.74987C11.1584 2.01973 13.4587 1.06667 15.9056 1.06667C18.3525 1.06667 20.6528 2.01973 22.3835 3.74987C25.6101 6.976 26.0075 13.0496 23.2224 16.7627L15.9056 27.3296L8.57708 16.7467C5.80374 13.0496 6.20161 6.976 9.42774 3.74987Z" fill="black"/>
<path d="M22.4624 22.937C22.1691 22.9013 21.9045 23.1114 21.8704 23.4042C21.8363 23.697 22.0453 23.9621 22.3376 23.9962C27.9461 24.6565 30.9333 26.4357 30.9333 27.4666C30.9333 28.9141 25.2523 30.9333 16 30.9333C6.74773 30.9333 1.06667 28.9141 1.06667 27.4666C1.06667 26.4357 4.05387 24.6565 9.6624 23.9962C9.95467 23.9621 10.1637 23.6965 10.1296 23.4042C10.0949 23.1114 9.8304 22.9002 9.5376 22.937C3.92213 23.5984 0 25.4608 0 27.4666C0 29.7194 5.496 32 16 32C26.504 32 32 29.7194 32 27.4666C32 25.4608 28.0779 23.5984 22.4624 22.937Z" fill="black"/>
</g>
<defs>
<clipPath id="clip0_1_447">
<rect width="32" height="32" fill="white"/>
</clipPath>
</defs>
</svg>
