<svg width="32" height="32" viewBox="0 0 32 32" fill="none" xmlns="http://www.w3.org/2000/svg">
<g clip-path="url(#clip0_1_442)">
<path d="M31.9286 21.9866C31.7066 21.1777 31.0283 20.5757 30.1987 20.4513V8.29146H31.2583C31.5509 8.29146 31.7881 8.05424 31.7881 7.76166V2.46364C31.7881 2.1708 31.5509 1.93384 31.2583 1.93384H7.94703C7.65445 1.93384 7.41723 2.1708 7.41723 2.46364V7.76166C7.41723 8.05424 7.65445 8.29146 7.94703 8.29146H9.00663V18.8875H8.47683C7.1619 18.8844 5.87387 19.2613 4.76822 19.973V17.2981C4.76822 17.0053 4.531 16.7683 4.23842 16.7683H0.529802C0.237221 16.7683 0 17.0053 0 17.2981V29.4835C0 29.7761 0.237221 30.0133 0.529802 30.0133H4.23842C4.531 30.0133 4.76822 29.7761 4.76822 29.4835V26.8089C5.87413 27.5201 7.1619 27.897 8.47683 27.8941H17.1761C17.7789 27.8931 18.3788 27.8139 18.9611 27.6587L30.4318 24.586C31.5605 24.2784 32.2292 23.1174 31.9286 21.9866ZM8.47683 2.99344H30.7285V7.23186H8.47683V2.99344ZM10.0662 8.29146H29.1391V20.5424L22.9902 22.1913C22.737 21.5875 22.2204 21.134 21.5889 20.9609L14.4503 19.0463C14.0483 18.9405 13.6344 18.887 13.2187 18.8875H10.0662V8.29146ZM3.70861 28.9537H1.0596V17.8279H3.70861V28.9537ZM30.1568 23.5623L18.6882 26.6351C18.1949 26.7668 17.6868 26.8338 17.1761 26.8345H8.47683C7.21545 26.8374 5.98743 26.4281 4.98009 25.6689L4.76822 25.51V21.2716L4.98009 21.1125C5.98743 20.3533 7.21545 19.9437 8.47683 19.9471H13.2187C13.5423 19.9468 13.8649 19.9888 14.1782 20.0715L21.3144 21.9846C21.7361 22.1007 22.0447 22.4621 22.0928 22.897C22.0985 22.9187 22.1055 22.9402 22.1141 22.9611C22.1078 22.9839 22.1032 23.0069 22.1001 23.0305C22.1006 23.1166 22.089 23.2025 22.0652 23.2853C21.9405 23.747 21.5222 24.0681 21.0438 24.0689C20.9505 24.0696 20.8578 24.0577 20.7678 24.0339L16.2645 22.8264C16.0798 22.7715 15.8798 22.8212 15.7422 22.9562C15.6048 23.0913 15.5513 23.2902 15.6028 23.4759C15.6543 23.6614 15.8025 23.8047 15.99 23.8495L20.4934 25.0576C20.6731 25.1049 20.8586 25.1287 21.0449 25.1285C21.9974 25.1279 22.8322 24.4908 23.0839 23.5719C23.1134 23.4656 23.1333 23.3569 23.1439 23.2472L29.6027 21.5153C29.6487 21.5037 29.6987 21.4918 29.7457 21.484C30.2732 21.416 30.7691 21.7494 30.9055 22.2632C30.9293 22.3527 30.9412 22.445 30.9404 22.5377C30.9412 23.0173 30.6199 23.4374 30.1568 23.5623Z" fill="black"/>
<path d="M16.9536 10.4106H22.2517C22.5442 10.4106 22.7815 10.1734 22.7815 9.88082C22.7815 9.58798 22.5442 9.35101 22.2517 9.35101H16.9536C16.661 9.35101 16.4238 9.58798 16.4238 9.88082C16.4238 10.1734 16.661 10.4106 16.9536 10.4106Z" fill="black"/>
</g>
<defs>
<clipPath id="clip0_1_442">
<rect width="32" height="32" fill="white"/>
</clipPath>
</defs>
</svg>
