<svg width="20" height="20" viewBox="0 0 20 20" fill="none" xmlns="http://www.w3.org/2000/svg">
<g clip-path="url(#clip0_1_492)">
<path d="M19.9167 3.5C19.8334 3.41668 19.75 3.33332 19.5834 3.33332H3.75L3.33332 1.16668C3.33332 1 3.08332 0.833359 2.91664 0.833359H0.416641C0.16668 0.83332 0 1 0 1.25C0 1.5 0.16668 1.66668 0.41668 1.66668H2.58336L4.58336 11.8334C4.83336 13.1667 6.08336 14.1667 7.41668 14.1667H17C17.25 14.1667 17.4167 14 17.4167 13.75C17.4167 13.5 17.25 13.3333 17 13.3333H7.5C6.83332 13.3333 6.16668 13 5.83332 12.4167L18 10.75C18.1667 10.75 18.3333 10.5833 18.3333 10.4167L20 3.75C20 3.75 20 3.58332 19.9167 3.5ZM17.5833 10L5.41664 11.5833L3.91664 4.08332H19L17.5833 10Z" fill="black"/>
<path d="M7.08332 15C5.91668 15 5 15.9167 5 17.0833C5 18.25 5.91668 19.1666 7.08332 19.1666C8.25 19.1666 9.16664 18.25 9.16664 17.0833C9.16668 15.9167 8.25 15 7.08332 15ZM7.08332 18.3333C6.41664 18.3333 5.83332 17.75 5.83332 17.0833C5.83332 16.4167 6.41664 15.8333 7.08332 15.8333C7.75 15.8333 8.33332 16.4167 8.33332 17.0833C8.33332 17.75 7.75 18.3333 7.08332 18.3333Z" fill="black"/>
<path d="M15.4149 15C14.2482 15 13.3315 15.9167 13.3315 17.0833C13.3315 18.25 14.2482 19.1666 15.4149 19.1666C16.5815 19.1666 17.4982 18.25 17.4982 17.0833C17.4982 15.9167 16.5815 15 15.4149 15ZM15.4149 18.3333C14.7482 18.3333 14.1649 17.75 14.1649 17.0833C14.1649 16.4167 14.7482 15.8333 15.4149 15.8333C16.0815 15.8333 16.6649 16.4167 16.6649 17.0833C16.6649 17.75 16.0815 18.3333 15.4149 18.3333Z" fill="black"/>
</g>
<defs>
<clipPath id="clip0_1_492">
<rect width="20" height="20" fill="white"/>
</clipPath>
</defs>
</svg>
