<svg width="20" height="20" viewBox="0 0 20 20" fill="none" xmlns="http://www.w3.org/2000/svg">
<g clip-path="url(#clip0_1_507)">
<path d="M4.04065 19.5278C3.96655 19.5278 3.89244 19.5049 3.83015 19.4594C3.71989 19.3793 3.66476 19.2436 3.68803 19.1093L4.79458 12.659L0.108097 8.09137C0.010723 7.99615 -0.0243603 7.85402 0.0175249 7.72479C0.0597681 7.59519 0.17182 7.50068 0.306783 7.48099L6.78288 6.53983L9.6794 0.671247C9.73954 0.548814 9.86413 0.471487 10.0002 0.471487C10.1366 0.471487 10.2611 0.548814 10.3209 0.671247L13.2171 6.53983L19.6935 7.48099C19.8285 7.50068 19.9402 7.59483 19.9828 7.72479C20.0247 7.85402 19.99 7.9965 19.8922 8.09137L15.2057 12.6597L16.3119 19.1097C16.3349 19.2439 16.2797 19.3796 16.1698 19.4598C16.0596 19.5407 15.9131 19.5511 15.7925 19.487L10.0002 16.4419L4.20712 19.487C4.15485 19.5142 4.09757 19.5278 4.04065 19.5278ZM1.1273 8.08493L5.42895 12.2781C5.51308 12.3601 5.55174 12.4789 5.53169 12.5949L4.51607 18.5154L9.8337 15.7202C9.93787 15.6651 10.0621 15.6651 10.167 15.7202L15.4839 18.5154L14.4686 12.5949C14.4486 12.4789 14.4872 12.3604 14.5714 12.2781L18.873 8.08493L12.9285 7.22109C12.8118 7.20426 12.7112 7.13088 12.659 7.02527L10.0002 1.6389L7.34135 7.02563C7.28908 7.13123 7.18849 7.20462 7.07178 7.22145L1.1273 8.08493Z" fill="black"/>
</g>
<defs>
<clipPath id="clip0_1_507">
<rect width="20" height="20" fill="white"/>
</clipPath>
</defs>
</svg>
