<svg width="32" height="32" viewBox="0 0 32 32" fill="none" xmlns="http://www.w3.org/2000/svg">
<g clip-path="url(#clip0_1_454)">
<path d="M16 0C7.1776 0 0 7.1776 0 16C0 24.8224 7.1776 32 16 32C24.8224 32 32 24.8224 32 16C32 7.1776 24.8224 0 16 0ZM16 30.9333C7.76587 30.9333 1.06667 24.2341 1.06667 16C1.06667 7.76587 7.76587 1.06667 16 1.06667C24.2341 1.06667 30.9333 7.76587 30.9333 16C30.9333 24.2341 24.2341 30.9333 16 30.9333Z" fill="black"/>
<path d="M16 3.20001C15.7056 3.20001 15.4667 3.43841 15.4667 3.73335V16H7.46665C7.17225 16 6.93332 16.2384 6.93332 16.5333C6.93332 16.8283 7.17225 17.0667 7.46665 17.0667H16C16.2944 17.0667 16.5333 16.8283 16.5333 16.5333V3.73335C16.5333 3.43841 16.2944 3.20001 16 3.20001Z" fill="black"/>
</g>
<defs>
<clipPath id="clip0_1_454">
<rect width="32" height="32" fill="white"/>
</clipPath>
</defs>
</svg>
