<svg width="20" height="20" viewBox="0 0 20 20" fill="none" xmlns="http://www.w3.org/2000/svg">
<g clip-path="url(#clip0_1_484)">
<path d="M14.6252 12.9868C14.6093 12.9851 12.307 13.053 11.9647 10.5859C12.3451 10.3205 12.6956 9.97602 13.0045 9.55797C13.6052 8.74469 13.9924 7.72445 14.1302 6.6209C14.1776 6.57805 14.2168 6.52473 14.2433 6.46187C14.4927 5.86754 14.6193 5.23293 14.6193 4.57559C14.6193 2.05262 12.7161 0 10.3766 0C9.76481 0 9.17122 0.140937 8.6106 0.419258C8.39673 0.435586 8.18716 0.473203 7.98618 0.53125C7.02536 0.808867 6.24349 1.52125 5.78454 2.53727C5.33899 3.52375 5.25118 4.68504 5.53735 5.80727C5.59782 6.04434 5.6747 6.2773 5.76587 6.49988C5.79056 6.56008 5.82735 6.61145 5.87153 6.65371C6.09489 8.37617 6.91446 9.80332 8.03196 10.5825C7.6886 13.0538 5.3872 12.9852 5.37134 12.9869C3.71579 13.0431 2.38599 14.4065 2.38599 16.0755V19.5497C2.38599 19.7984 2.58759 20 2.8363 20H6.79064H13.2058H17.1602C17.4088 20 17.6105 19.7984 17.6105 19.5497V16.0755C17.6105 14.4064 16.2808 13.043 14.6252 12.9868ZM8.23622 1.39652C8.40056 1.34902 8.57411 1.32086 8.75208 1.31285C8.81813 1.30988 8.88271 1.29242 8.94126 1.26164C9.39716 1.02211 9.88013 0.900664 10.3767 0.900664C12.2194 0.900664 13.7186 2.54922 13.7186 4.57559C13.7186 4.63641 13.7169 4.69691 13.7143 4.75719C13.3568 4.39422 12.8602 4.16863 12.3118 4.16863H9.24267C9.06005 4.16863 8.88673 4.11129 8.74138 4.00277C8.61728 3.91016 8.52134 3.78566 8.46403 3.64277C8.37528 3.42176 8.15646 3.28352 7.91825 3.29848C7.67919 3.31371 7.47802 3.47973 7.41763 3.71172C7.23978 4.39516 6.88513 5.02469 6.39856 5.5352C5.94583 3.67195 6.7629 1.82219 8.23622 1.39652ZM7.84442 9.18516C7.25845 8.4693 6.8747 7.50262 6.75306 6.4443C7.3213 5.93785 7.77052 5.30762 8.06298 4.60855C8.10735 4.64949 8.15396 4.6882 8.20263 4.72457C8.50481 4.95008 8.86442 5.06934 9.2427 5.06934H12.3119C12.7461 5.06934 13.1204 5.3298 13.2875 5.70258C13.2874 5.70578 13.287 5.70883 13.287 5.71203C13.287 8.25414 11.812 10.3223 9.99892 10.3223C9.20985 10.3223 8.44466 9.91848 7.84442 9.18516ZM8.87915 11.0247C9.23614 11.1539 9.61165 11.223 9.99892 11.223C10.3831 11.223 10.7584 11.1561 11.1178 11.0271C11.2827 11.8861 11.7603 12.6348 12.4274 13.1503L10.0628 16.5178C10.0474 16.5398 10.0259 16.5509 9.99903 16.5509C9.9722 16.5509 9.95075 16.5397 9.93536 16.5178L7.57013 13.1495C8.23731 12.6335 8.71478 11.8843 8.87915 11.0247ZM16.7098 19.0993H13.2058H6.79064H3.28661V16.0754C3.28661 14.8675 4.26931 13.8848 5.4772 13.8848C5.4936 13.8848 6.21825 13.8672 6.79083 13.607L9.19821 17.0354C9.38118 17.296 9.68056 17.4516 9.99899 17.4516C9.99899 17.4516 9.99899 17.4516 9.99903 17.4516C10.3174 17.4516 10.6168 17.296 10.7998 17.0354L13.2068 13.6075C13.8598 13.8848 14.5029 13.8848 14.5193 13.8848C15.7272 13.8848 16.7098 14.8675 16.7098 16.0754V19.0993Z" fill="black"/>
</g>
<defs>
<clipPath id="clip0_1_484">
<rect width="20" height="20" fill="white"/>
</clipPath>
</defs>
</svg>
