<svg width="32" height="32" viewBox="0 0 32 32" fill="none" xmlns="http://www.w3.org/2000/svg">
<g clip-path="url(#clip0_601_1479)">
<path d="M27.6011 11.6548C21.1746 5.22834 10.7189 5.22834 4.29243 11.6548L0 15.9467L4.39892 20.3456C7.61189 23.5586 11.8324 25.1656 16.0535 25.1656C20.2746 25.1656 24.4946 23.5591 27.7081 20.3456L32.0005 16.0532L27.6011 11.6548ZM26.9432 19.5813C20.9384 25.5856 11.1681 25.5856 5.16324 19.5813L1.52865 15.9467L5.05676 12.4186C11.0616 6.41429 20.8319 6.41429 26.8368 12.4186L30.4714 16.0532L26.9432 19.5813Z" fill="black"/>
<path d="M15.4439 11.6597C13.3575 11.6597 11.6602 13.357 11.6602 15.4435C11.6602 15.7418 11.9023 15.984 12.2007 15.984C12.4991 15.984 12.7412 15.7418 12.7412 15.4435C12.7412 13.9532 13.9537 12.7407 15.4439 12.7407C15.7423 12.7407 15.9845 12.4986 15.9845 12.2002C15.9845 11.9018 15.7429 11.6597 15.4439 11.6597Z" fill="black"/>
<path d="M15.9841 8.95703C12.1095 8.95703 8.95703 12.1095 8.95703 15.9841C8.95703 19.8587 12.1095 23.0111 15.9841 23.0111C19.8587 23.0111 23.0111 19.8587 23.0111 15.9841C23.0111 12.1095 19.8592 8.95703 15.9841 8.95703ZM15.9841 21.93C12.7057 21.93 10.0381 19.2624 10.0381 15.9841C10.0381 12.7057 12.7057 10.0381 15.9841 10.0381C19.2624 10.0381 21.93 12.7057 21.93 15.9841C21.93 19.2624 19.263 21.93 15.9841 21.93Z" fill="black"/>
</g>
<defs>
<clipPath id="clip0_601_1479">
<rect width="32" height="32" fill="white"/>
</clipPath>
</defs>
</svg>
